<?xml version="1.0" encoding="UTF-8"?>
<svg width="700pt" height="700pt" version="1.1" viewBox="0 0 700 700" xmlns="http://www.w3.org/2000/svg" xmlns:xlink="http://www.w3.org/1999/xlink">
 <defs>
  <symbol id="u" overflow="visible">
   <path d="m20.844-1.25c-1.0742 0.5625-2.1953 0.98438-3.3594 1.2656-1.168 0.28125-2.3828 0.42188-3.6406 0.42188-3.7812 0-6.7773-1.0508-8.9844-3.1562-2.2109-2.1133-3.3125-4.9766-3.3125-8.5938 0-3.625 1.1016-6.4922 3.3125-8.6094 2.207-2.1133 5.2031-3.1719 8.9844-3.1719 1.2578 0 2.4727 0.14844 3.6406 0.4375 1.1641 0.28125 2.2852 0.69922 3.3594 1.25v4.7031c-1.0859-0.73828-2.1523-1.2812-3.2031-1.625-1.0547-0.34375-2.1641-0.51562-3.3281-0.51562-2.0859 0-3.7266 0.66797-4.9219 2-1.1992 1.3359-1.7969 3.1797-1.7969 5.5312 0 2.3359 0.59766 4.1719 1.7969 5.5156 1.1953 1.3359 2.8359 2 4.9219 2 1.1641 0 2.2734-0.17188 3.3281-0.51562 1.0508-0.34375 2.1172-0.88281 3.2031-1.625z"/>
  </symbol>
  <symbol id="d" overflow="visible">
   <path d="m15.25-12.375c-0.48047-0.22656-0.95312-0.39453-1.4219-0.5-0.46875-0.10156-0.94531-0.15625-1.4219-0.15625-1.3984 0-2.4766 0.44922-3.2344 1.3438-0.75 0.89844-1.125 2.1797-1.125 3.8438v7.8438h-5.4375v-17.016h5.4375v2.7969c0.69531-1.1133 1.5-1.9258 2.4062-2.4375 0.90625-0.50781 1.9922-0.76562 3.2656-0.76562 0.17578 0 0.36719 0.011719 0.57812 0.03125 0.21875 0.011719 0.53125 0.042969 0.9375 0.09375z"/>
  </symbol>
  <symbol id="c" overflow="visible">
   <path d="m19.594-8.5469v1.5469h-12.719c0.13281 1.2734 0.59766 2.2305 1.3906 2.875 0.78906 0.63672 1.8945 0.95312 3.3125 0.95312 1.1445 0 2.3164-0.16406 3.5156-0.5 1.1953-0.34375 2.4297-0.85938 3.7031-1.5469v4.1875c-1.293 0.49219-2.5859 0.85547-3.875 1.0938-1.2812 0.25-2.5625 0.375-3.8438 0.375-3.0859 0-5.4805-0.78125-7.1875-2.3438-1.6992-1.5625-2.5469-3.7539-2.5469-6.5781 0-2.7812 0.83203-4.9609 2.5-6.5469 1.6758-1.5938 3.9844-2.3906 6.9219-2.3906 2.6758 0 4.8164 0.80859 6.4219 2.4219 1.6016 1.6055 2.4062 3.7578 2.4062 6.4531zm-5.5938-1.8125c0-1.0312-0.30469-1.8633-0.90625-2.5-0.59375-0.63281-1.3828-0.95312-2.3594-0.95312-1.0547 0-1.9062 0.29688-2.5625 0.89062s-1.0703 1.4492-1.2344 2.5625z"/>
  </symbol>
  <symbol id="i" overflow="visible">
   <path d="m10.234-7.6562c-1.1367 0-1.9922 0.19531-2.5625 0.57812-0.5625 0.38672-0.84375 0.95312-0.84375 1.7031 0 0.6875 0.22656 1.2305 0.6875 1.625 0.45703 0.38672 1.0977 0.57812 1.9219 0.57812 1.0195 0 1.8789-0.36328 2.5781-1.0938 0.69531-0.73828 1.0469-1.6602 1.0469-2.7656v-0.625zm8.3125-2.0469v9.7031h-5.4844v-2.5156c-0.73047 1.0312-1.5547 1.7812-2.4688 2.25-0.90625 0.46875-2.0117 0.70312-3.3125 0.70312-1.7617 0-3.1953-0.50781-4.2969-1.5312-1.0938-1.0312-1.6406-2.3672-1.6406-4.0156 0-1.9883 0.67969-3.4453 2.0469-4.375 1.375-0.9375 3.5312-1.4062 6.4688-1.4062h3.2031v-0.42188c0-0.86328-0.33984-1.4922-1.0156-1.8906-0.67969-0.40625-1.7344-0.60938-3.1719-0.60938-1.168 0-2.2578 0.12109-3.2656 0.35938-1 0.23047-1.9297 0.57812-2.7812 1.0469v-4.1562c1.1641-0.28125 2.332-0.49219 3.5-0.64062 1.1758-0.14453 2.3516-0.21875 3.5312-0.21875 3.0703 0 5.2852 0.60547 6.6406 1.8125 1.3633 1.2109 2.0469 3.1797 2.0469 5.9062z"/>
  </symbol>
  <symbol id="b" overflow="visible">
   <path d="m8.5469-21.844v4.8281h5.6094v3.8906h-5.6094v7.2188c0 0.79297 0.15625 1.3281 0.46875 1.6094 0.32031 0.27344 0.94531 0.40625 1.875 0.40625h2.7969v3.8906h-4.6719c-2.1484 0-3.668-0.44531-4.5625-1.3438-0.89844-0.89453-1.3438-2.4141-1.3438-4.5625v-7.2188h-2.7031v-3.8906h2.7031v-4.8281z"/>
  </symbol>
  <symbol id="h" overflow="visible">
   <path d="m14.188-14.516v-9.125h5.4688v23.641h-5.4688v-2.4531c-0.75 1-1.5781 1.7344-2.4844 2.2031-0.89844 0.45703-1.9375 0.6875-3.125 0.6875-2.0938 0-3.8203-0.83203-5.1719-2.5-1.3438-1.6641-2.0156-3.8047-2.0156-6.4219 0-2.625 0.67188-4.7695 2.0156-6.4375 1.3516-1.6641 3.0781-2.5 5.1719-2.5 1.1758 0 2.2188 0.23438 3.125 0.70312s1.7344 1.2031 2.4844 2.2031zm-3.5781 11c1.1562 0 2.0391-0.42188 2.6562-1.2656 0.61328-0.85156 0.92188-2.0859 0.92188-3.7031 0-1.625-0.30859-2.8594-0.92188-3.7031-0.61719-0.85156-1.5-1.2812-2.6562-1.2812s-2.043 0.42969-2.6562 1.2812c-0.61719 0.84375-0.92188 2.0781-0.92188 3.7031 0 1.6172 0.30469 2.8516 0.92188 3.7031 0.61328 0.84375 1.5 1.2656 2.6562 1.2656z"/>
  </symbol>
  <symbol id="g" overflow="visible">
   <path d="m11.672-3.5156c1.1562 0 2.0391-0.42188 2.6562-1.2656 0.61328-0.85156 0.92188-2.0859 0.92188-3.7031 0-1.625-0.30859-2.8594-0.92188-3.7031-0.61719-0.85156-1.5-1.2812-2.6562-1.2812-1.168 0-2.0625 0.42969-2.6875 1.2812-0.625 0.85547-0.9375 2.0898-0.9375 3.7031 0 1.6055 0.3125 2.8359 0.9375 3.6875 0.625 0.85547 1.5195 1.2812 2.6875 1.2812zm-3.625-11c0.75-1 1.5781-1.7344 2.4844-2.2031 0.91406-0.46875 1.9688-0.70312 3.1562-0.70312 2.0938 0 3.8125 0.83594 5.1562 2.5 1.3516 1.668 2.0312 3.8125 2.0312 6.4375 0 2.6172-0.67969 4.7578-2.0312 6.4219-1.3438 1.668-3.0625 2.5-5.1562 2.5-1.1875 0-2.2422-0.23438-3.1562-0.70312-0.90625-0.46875-1.7344-1.1953-2.4844-2.1875v2.4531h-5.4375v-23.641h5.4375z"/>
  </symbol>
  <symbol id="m" overflow="visible">
   <path d="m0.375-17.016h5.4375l4.5781 11.547 3.8906-11.547h5.4375l-7.1562 18.625c-0.71875 1.8945-1.5586 3.2188-2.5156 3.9688-0.96094 0.75781-2.2188 1.1406-3.7812 1.1406h-3.1562v-3.5781h1.7031c0.92578 0 1.5977-0.14844 2.0156-0.4375 0.41406-0.29297 0.74219-0.82031 0.98438-1.5781l0.14062-0.46875z"/>
  </symbol>
  <symbol id="l" overflow="visible">
   <path d="m18.641-21.969v4.7969c-1.25-0.55078-2.4688-0.96875-3.6562-1.25-1.1797-0.28125-2.293-0.42188-3.3438-0.42188-1.3984 0-2.4336 0.19531-3.1094 0.57812-0.66797 0.375-1 0.96875-1 1.7812 0 0.61719 0.22266 1.0938 0.67188 1.4375 0.45703 0.33594 1.2734 0.62109 2.4531 0.85938l2.5 0.5c2.5195 0.51172 4.3125 1.2812 5.375 2.3125s1.5938 2.5 1.5938 4.4062c0 2.5-0.74609 4.3594-2.2344 5.5781-1.4805 1.2188-3.7422 1.8281-6.7812 1.8281-1.4375 0-2.8828-0.13672-4.3281-0.40625-1.4492-0.26953-2.8984-0.67578-4.3438-1.2188v-4.9375c1.4453 0.77344 2.8438 1.3555 4.1875 1.75 1.3516 0.38672 2.6602 0.57812 3.9219 0.57812 1.2695 0 2.2422-0.21094 2.9219-0.64062 0.67578-0.42578 1.0156-1.0352 1.0156-1.8281 0-0.70703-0.23047-1.25-0.6875-1.625-0.46094-0.38281-1.375-0.73438-2.75-1.0469l-2.2656-0.5c-2.2734-0.47656-3.9336-1.25-4.9844-2.3125-1.043-1.0703-1.5625-2.5078-1.5625-4.3125 0-2.25 0.72656-3.9844 2.1875-5.2031 1.457-1.2188 3.5508-1.8281 6.2812-1.8281 1.25 0 2.5312 0.09375 3.8438 0.28125 1.3203 0.1875 2.6875 0.46875 4.0938 0.84375z"/>
  </symbol>
  <symbol id="k" overflow="visible">
   <path d="m2.4375-6.625v-10.391h5.4688v1.7031c0 0.92969-0.007812 2.0898-0.015625 3.4844-0.011719 1.3867-0.015625 2.3125-0.015625 2.7812 0 1.3672 0.03125 2.3516 0.09375 2.9531 0.070312 0.60547 0.19531 1.043 0.375 1.3125 0.21875 0.35547 0.50391 0.63281 0.85938 0.82812 0.36328 0.1875 0.78125 0.28125 1.25 0.28125 1.1328 0 2.0234-0.42969 2.6719-1.2969 0.64453-0.875 0.96875-2.0859 0.96875-3.6406v-8.4062h5.4375v17.016h-5.4375v-2.4531c-0.82422 0.99219-1.6953 1.7188-2.6094 2.1875-0.91797 0.46875-1.9297 0.70312-3.0312 0.70312-1.9609 0-3.4531-0.59766-4.4844-1.7969-1.0234-1.207-1.5312-2.9609-1.5312-5.2656z"/>
  </symbol>
  <symbol id="f" overflow="visible">
   <path d="m2.6094-17.016h5.4375v17.016h-5.4375zm0-6.625h5.4375v4.4375h-5.4375z"/>
  </symbol>
  <symbol id="a" overflow="visible">
   <path d="m10.703-13.531c-1.1992 0-2.1172 0.43359-2.75 1.2969-0.63672 0.86719-0.95312 2.1172-0.95312 3.75 0 1.625 0.31641 2.8711 0.95312 3.7344 0.63281 0.86719 1.5508 1.2969 2.75 1.2969 1.1875 0 2.0938-0.42969 2.7188-1.2969 0.63281-0.86328 0.95312-2.1094 0.95312-3.7344 0-1.6328-0.32031-2.8828-0.95312-3.75-0.625-0.86328-1.5312-1.2969-2.7188-1.2969zm0-3.8906c2.9258 0 5.2109 0.79297 6.8594 2.375 1.6445 1.5742 2.4688 3.7617 2.4688 6.5625 0 2.793-0.82422 4.9805-2.4688 6.5625-1.6484 1.5742-3.9336 2.3594-6.8594 2.3594-2.9375 0-5.2344-0.78516-6.8906-2.3594-1.6484-1.582-2.4688-3.7695-2.4688-6.5625 0-2.8008 0.82031-4.9883 2.4688-6.5625 1.6562-1.582 3.9531-2.375 6.8906-2.375z"/>
  </symbol>
  <symbol id="t" overflow="visible">
   <path d="m2.8594-22.672h15.781v4.4062h-9.9375v4.2344h9.3438v4.4219h-9.3438v9.6094h-5.8438z"/>
  </symbol>
  <symbol id="j" overflow="visible">
   <path d="m19.719-10.359v10.359h-5.4688v-7.9219c0-1.4688-0.039062-2.4766-0.10938-3.0312-0.0625-0.5625-0.17188-0.97656-0.32812-1.25-0.21875-0.35156-0.51172-0.62891-0.875-0.82812-0.36719-0.19531-0.77734-0.29688-1.2344-0.29688-1.1367 0-2.0312 0.44531-2.6875 1.3281-0.64844 0.875-0.96875 2.0859-0.96875 3.625v8.375h-5.4375v-17.016h5.4375v2.5c0.82031-1 1.6914-1.7344 2.6094-2.2031 0.92578-0.46875 1.9453-0.70312 3.0625-0.70312 1.957 0 3.4453 0.60547 4.4688 1.8125 1.0195 1.1992 1.5312 2.9492 1.5312 5.25z"/>
  </symbol>
  <symbol id="e" overflow="visible">
   <path d="m16.359-16.484v4.4375c-0.74219-0.50781-1.4844-0.88281-2.2344-1.125-0.74219-0.23828-1.5117-0.35938-2.3125-0.35938-1.5117 0-2.6953 0.44531-3.5469 1.3281-0.84375 0.88672-1.2656 2.125-1.2656 3.7188 0 1.5859 0.42188 2.8203 1.2656 3.7031 0.85156 0.88672 2.0352 1.3281 3.5469 1.3281 0.85156 0 1.6602-0.125 2.4219-0.375 0.76953-0.25 1.4766-0.625 2.125-1.125v4.4531c-0.85547 0.3125-1.7188 0.54688-2.5938 0.70312s-1.75 0.23438-2.625 0.23438c-3.0742 0-5.4766-0.78516-7.2031-2.3594-1.7305-1.5703-2.5938-3.7578-2.5938-6.5625 0-2.8125 0.86328-5.0039 2.5938-6.5781 1.7266-1.5703 4.1289-2.3594 7.2031-2.3594 0.88281 0 1.7578 0.078125 2.625 0.23438 0.86328 0.15625 1.7266 0.39062 2.5938 0.70312z"/>
  </symbol>
  <symbol id="s" overflow="visible">
   <path d="m13.812-23.641v3.5781h-3.0156c-0.77344 0-1.3086 0.14062-1.6094 0.42188-0.30469 0.27344-0.45312 0.75-0.45312 1.4375v1.1875h4.6406v3.8906h-4.6406v13.125h-5.4375v-13.125h-2.7031v-3.8906h2.7031v-1.1875c0-1.8516 0.51562-3.2227 1.5469-4.1094 1.0312-0.88281 2.6289-1.3281 4.7969-1.3281z"/>
  </symbol>
  <symbol id="r" overflow="visible">
   <path d="m18.375-14.188c0.6875-1.0508 1.5039-1.8516 2.4531-2.4062 0.94531-0.55078 1.9883-0.82812 3.125-0.82812 1.957 0 3.4453 0.60547 4.4688 1.8125 1.0195 1.1992 1.5312 2.9492 1.5312 5.25v10.359h-5.4688v-8.875c0.007813-0.125 0.015625-0.25781 0.015625-0.40625 0.007812-0.14453 0.015625-0.34766 0.015625-0.60938 0-1.207-0.17969-2.082-0.53125-2.625-0.35547-0.53906-0.92969-0.8125-1.7188-0.8125-1.0312 0-1.8281 0.42969-2.3906 1.2812-0.5625 0.85547-0.85547 2.0859-0.875 3.6875v8.3594h-5.4688v-8.875c0-1.8828-0.16406-3.0977-0.48438-3.6406-0.32422-0.53906-0.90234-0.8125-1.7344-0.8125-1.043 0-1.8516 0.43359-2.4219 1.2969-0.5625 0.85547-0.84375 2.0742-0.84375 3.6562v8.375h-5.4688v-17.016h5.4688v2.5c0.66406-0.96875 1.4297-1.6914 2.2969-2.1719 0.875-0.48828 1.832-0.73438 2.875-0.73438 1.1758 0 2.2109 0.28906 3.1094 0.85938 0.90625 0.5625 1.5859 1.3555 2.0469 2.375z"/>
  </symbol>
  <symbol id="q" overflow="visible">
   <path d="m19.719-10.359v10.359h-5.4688v-7.9062c0-1.4766-0.039062-2.4922-0.10938-3.0469-0.0625-0.5625-0.17188-0.97656-0.32812-1.25-0.21875-0.35156-0.51172-0.62891-0.875-0.82812-0.36719-0.19531-0.77734-0.29688-1.2344-0.29688-1.1367 0-2.0312 0.44531-2.6875 1.3281-0.64844 0.875-0.96875 2.0859-0.96875 3.625v8.375h-5.4375v-23.641h5.4375v9.125c0.82031-1 1.6914-1.7344 2.6094-2.2031 0.92578-0.46875 1.9453-0.70312 3.0625-0.70312 1.957 0 3.4453 0.60547 4.4688 1.8125 1.0195 1.1992 1.5312 2.9492 1.5312 5.25z"/>
  </symbol>
  <symbol id="p" overflow="visible">
   <path d="m2.8594-22.672h6.5312l8.25 15.547v-15.547h5.5469v22.672h-6.5469l-8.2344-15.562v15.562h-5.5469z"/>
  </symbol>
  <symbol id="o" overflow="visible">
   <path d="m2.8594-22.672h9.7031c2.8828 0 5.0977 0.64062 6.6406 1.9219 1.5508 1.2812 2.3281 3.1055 2.3281 5.4688 0 2.375-0.77734 4.2031-2.3281 5.4844-1.543 1.2812-3.7578 1.9219-6.6406 1.9219h-3.8594v7.875h-5.8438zm5.8438 4.2344v6.3281h3.2344c1.1328 0 2.0078-0.27344 2.625-0.82812 0.625-0.55078 0.9375-1.332 0.9375-2.3438 0-1.0078-0.3125-1.7852-0.9375-2.3281-0.61719-0.55078-1.4922-0.82812-2.625-0.82812z"/>
  </symbol>
  <symbol id="n" overflow="visible">
   <path d="m2.6094-17.016h5.4375v16.719c0 2.2695-0.54688 4.0039-1.6406 5.2031-1.0938 1.207-2.6797 1.8125-4.75 1.8125h-2.6875v-3.5781h0.9375c1.0312 0 1.7383-0.23438 2.125-0.70312 0.38281-0.46094 0.57812-1.3711 0.57812-2.7344zm0-6.625h5.4375v4.4375h-5.4375z"/>
  </symbol>
 </defs>
 <g>
  <path d="m534.15 223.61c-0.011719-24.055-19.496-43.543-43.531-43.543-9.0039 0.007813-17.293 2.8242-24.23 7.4961-2.8125-21.316-21.012-37.773-43.109-37.789-9.5156 0.007812-18.281 3.0859-25.449 8.2617-5.1133-18.344-21.91-31.812-41.883-31.812-20.781 0.011719-38.137 14.559-42.465 34.078-0.375 2.2344-0.1875 1.75-0.27344 2.75-0.070312 2.3164-0.11719 7.4492-0.14453 14.559-6.9766-4.7617-15.352-7.6289-24.441-7.6328-20.793 0.023437-38.137 14.578-42.461 34.074l-0.21094 1.9492v26.719c-5.5625-7.9141-15.367-14.293-27.645-14.129-7.375 0.019531-15.395 2.0039-24.309 6.0586-2.9805 1.3672-4.9883 4.2188-5.25 7.4844 0 0-0.011719 0.32422-0.16016 1.4062-1.0625 7.5469-7.7109 44.016-43.398 89.719-1.4062 1.793-2.0703 4.0312-1.8867 6.2969 0.050781 0.39062 4.6406 55.957 23.16 112.3 9.2969 28.199 22.016 56.652 40.059 78.703 17.902 21.988 42.129 37.805 72.457 37.75 0.58594-0.011718 0.89453-0.011718 0.99609-0.011718l2.3477 0.023437c5.8555 1.082 11.898 1.6719 18.082 1.6602l134.68 0.011719c55.168-0.011719 99.898-44.73 99.898-99.922zm-67.324-8.9336c3.6328-9.6523 12.867-16.574 23.793-16.574v0.011719c14.074 0.023437 25.461 11.41 25.484 25.504v58.906c0 1.5938-0.16797 3.1875-0.46094 4.7969v0.011719c-2.2461 11.742-12.594 20.676-25.02 20.656-7.207 0.007812-13.684-3-18.312-7.8164-2.0273-2.1094-3.6602-4.5781-4.8711-7.2852-0.21094-0.48438-0.41797-0.96875-0.60938-1.4766-0.12891-0.35547-0.32812-0.69141-0.4375-1.0586v-0.011719c-0.82812-2.5156-1.2578-5.1133-1.2695-7.8281l0.011718-58.906c-0.011718-1.6133 0.17578-3.2734 0.48047-4.9453 0.17969-0.94531 0.44922-1.9102 0.77734-2.9297 0.10547-0.35938 0.30469-0.6875 0.43359-1.0547zm-43.59-46.859h0.0625c14.074 0.023438 25.473 11.426 25.5 25.5v116.13c-0.023437 8.7969-4.4727 16.539-11.258 21.129-4.0586 2.7383-8.9648 4.3477-14.242 4.3633-8.6055 0.011719-16.203-4.2812-20.82-10.832-1.3125-1.8789-2.3711-3.957-3.1484-6.1602-0.09375-0.23047-0.20703-0.44922-0.29297-0.69141-0.78906-2.4648-1.2266-5.0781-1.2383-7.7891l0.011719-116.14c0-2.7422 0.4375-5.3516 1.2383-7.8711 0.097656-0.26562 0.23047-0.52344 0.32812-0.78906 3.543-9.7891 12.863-16.855 23.859-16.855zm-92.035-1.832c0.023437-1.0391 0.039062-1.8555 0.050781-2.375v-0.03125c2.7695-11.09 12.793-19.34 24.715-19.328 14.07 0.019532 25.457 11.398 25.492 25.457 0 0.39062-0.29297 144.68-0.21875 146.91 0.023438 1.1094 0.0625 2.0156 0.11328 2.7891 0.050782 0.32812 0.0625 0.52734 0.074219 0.73438-0.011719 0.15625-0.050781 0.3125-0.0625 0.47266-0.050781 1.0469-0.17969 2.0664-0.35547 3.0859-0.074218 0.47266-0.097656 0.96875-0.20703 1.4375-0.25391 1.1641-0.64844 2.2539-1.0703 3.3477-0.16797 0.44141-0.28125 0.91016-0.46094 1.3516-0.46094 1.0312-1.0469 1.9805-1.6445 2.9414-0.25391 0.42188-0.46094 0.89453-0.74219 1.3008-0.60937 0.87891-1.3242 1.6562-2.0273 2.4375-0.37891 0.40625-0.69141 0.87109-1.0938 1.2578-0.71484 0.69141-1.5312 1.2812-2.3203 1.8984-0.48438 0.37891-0.92188 0.80078-1.4258 1.1445-0.81641 0.53516-1.6992 0.94141-2.5742 1.3867-0.58984 0.29688-1.125 0.64844-1.7109 0.91016-0.93359 0.39062-1.9531 0.62891-2.9492 0.91016-0.59766 0.16016-1.1641 0.40625-1.7656 0.53516-1.5195 0.30469-3.0977 0.44922-4.7031 0.47266-0.11719 0-0.21875 0.03125-0.34375 0.03125-0.94531-0.007812-1.8555-0.17969-2.7695-0.29297-12.539-1.4141-21.777-11.797-21.879-25.195-0.007812-0.16797-0.14453-151.49-0.12109-153.59zm-67.207 41.105c2.8555-10.949 12.801-19.098 24.645-19.07 10.871-0.011719 20.121 6.8125 23.805 16.391v97.105c-0.19141 0.51172-0.39844 1.0156-0.62891 1.5117-0.24219 0.54297-0.48047 1.082-0.75781 1.6055-0.32422 0.62109-0.70313 1.1875-1.0781 1.7656-0.33594 0.51172-0.64844 1.0312-1.0195 1.5117-0.39844 0.54297-0.85156 1.0312-1.293 1.5312-0.41016 0.46094-0.80078 0.94141-1.2461 1.3828-0.48047 0.46484-1 0.88281-1.5117 1.3203-0.47266 0.39062-0.92578 0.80859-1.4297 1.168-0.55469 0.39062-1.1523 0.72656-1.7344 1.082-0.51563 0.32422-1.0195 0.65234-1.5625 0.93359-0.63281 0.32812-1.3125 0.58594-1.9844 0.85156-0.53516 0.21875-1.0586 0.47266-1.6172 0.64844-0.77344 0.26172-1.582 0.41797-2.3828 0.60547-0.49219 0.11328-0.96875 0.26562-1.4766 0.35547-1.2578 0.20703-2.5508 0.29688-3.8633 0.3125-0.070313 0-0.13672 0.019531-0.20703 0.019531-1.5039 0-2.9805-0.12891-4.4062-0.39062-0.4375-0.074219-0.83984-0.23047-1.2695-0.32812-0.97656-0.21875-1.9492-0.4375-2.8828-0.77344-0.53516-0.1875-1.0391-0.46484-1.5625-0.68359-0.76562-0.34766-1.5508-0.64844-2.2695-1.0586-0.55859-0.31641-1.0586-0.70312-1.5938-1.0586-0.62891-0.41016-1.2812-0.80078-1.8672-1.2773-0.52344-0.41797-0.98828-0.91016-1.4805-1.3828-0.51562-0.48047-1.0586-0.95312-1.543-1.4766-0.46484-0.52344-0.85938-1.0938-1.2812-1.6445-0.42188-0.55469-0.87109-1.0898-1.25-1.6875-0.37891-0.60547-0.68359-1.2266-1.0156-1.8555-0.32422-0.62109-0.67187-1.2148-0.95703-1.8594-0.27344-0.64844-0.48047-1.3438-0.70312-2.0156-0.19922-0.59766-0.41016-1.1836-0.56641-1.7969l0.003906-91.742zm-18.031 101.8v55.895l-7.2734-2.1523c-0.75781-0.75391-2.8438-3.3984-2.9727-12.16-0.039063-8.1523 2.2773-21.473 10.246-41.582zm270.98 151.19c-0.074218 45.223-36.668 81.805-81.867 81.879h-134.66c-5.2891 0-10.453-0.49609-15.477-1.4805l-1.5977-0.14844-2.9922-0.039063c-0.20703-0.011718-0.39062-0.011718-0.56641-0.011718-0.34375 0-0.61719 0.011718-0.77734 0.011718-23.832-0.0625-42.516-11.797-58.516-31.16-23.863-28.926-39.148-74.492-47.863-112.59-4.3945-19.047-7.2383-36.25-8.9727-48.621-1.0391-7.4297-1.6797-13.09-2.0234-16.422 32.902-43.152 41.961-78.898 44.332-92.289 5.0898-1.8867 9.2031-2.5898 12.371-2.5898 6.7031 0.17578 9.832 2.4531 13.242 6.9258 6.3164 8.4062 7.9531 25.859 7.7734 33.582 0 0.93359-0.007812 1.6992-0.023437 2.3164-16.457 34.047-21.598 55.961-21.648 71.027-0.44922 20.09 11.02 28.176 13.777 28.777l20.988 6.2578c1.332 0.39062 19.723 0.83203 34.031 5.3125 16.316 5.0977 33.52 14.801 41.977 33.215 1.5117 3.2773 4.7852 5.2383 8.1836 5.2383 1.2695 0 2.543-0.26562 3.7656-0.83984 4.5234-2.0898 6.4883-7.4297 4.4102-11.961-11.562-24.969-34.172-37.027-52.977-42.879-11.117-3.4531-21.168-4.8828-27.824-5.4805l-0.007813-39.637c0.59766 0.40625 1.2578 0.71484 1.8711 1.1016 0.77734 0.48438 1.5625 0.95312 2.375 1.3867 1.2578 0.67187 2.5703 1.25 3.8945 1.7969 0.81641 0.34766 1.6133 0.69531 2.4453 0.98438 1.5234 0.51562 3.1055 0.91016 4.6992 1.25 0.70313 0.15625 1.3867 0.37891 2.1094 0.49609 2.3594 0.39062 4.7656 0.63281 7.2383 0.64844 0.16016 0 0.32812-0.039063 0.49609-0.039063 2.1914-0.03125 4.3477-0.19141 6.4531-0.53516 0.71094-0.11719 1.3828-0.34375 2.0781-0.48438 1.5234-0.32812 3.0508-0.64844 4.5117-1.125 0.80078-0.26172 1.5508-0.64062 2.332-0.94141 1.293-0.49609 2.5898-0.99609 3.8125-1.625 0.80078-0.40625 1.5508-0.91016 2.3281-1.3672 0.91016-0.54297 1.8555-1 2.7188-1.5977 3.5039 16.855 16.77 30.117 33.617 33.668 0.11328 0.023437 0.22266 0.050781 0.33594 0.070312 1.2383 0.26172 2.5 0.44141 3.7812 0.59766 0.16797 0.019532 0.34766 0.054688 0.52344 0.082032 1.4258 0.12891 2.875 0.23047 4.3438 0.23047 0.125 0 0.23047-0.03125 0.35547-0.03125 1.6719-0.019531 3.3047-0.12891 4.9297-0.33594 0.56641-0.070313 1.1133-0.15625 1.6719-0.25391 1.2461-0.19922 2.4766-0.45312 3.6836-0.75781 0.51172-0.12891 1.0195-0.23828 1.5195-0.39062 1.6289-0.46094 3.2305-1.0078 4.7734-1.668 0.19922-0.082031 0.37891-0.17969 0.57422-0.26562 1.3867-0.60938 2.7109-1.2891 4.0117-2.0273 0.42188-0.24219 0.85938-0.49609 1.2617-0.75391 1.1367-0.69141 2.207-1.4297 3.2656-2.2227 0.31641-0.23828 0.63281-0.46094 0.94141-0.69531 1.3438-1.0625 2.6133-2.1953 3.8125-3.3984 0.14453-0.12891 0.25391-0.28125 0.39062-0.41016 1.0586-1.0898 2.0547-2.2344 2.9922-3.4414 0.25391-0.32422 0.49609-0.64844 0.74219-0.98438 0.87891-1.168 1.6875-2.3945 2.4453-3.6602 0.10547-0.15625 0.21875-0.30469 0.32422-0.47266 1.1211 1.0469 2.2969 2.0039 3.5039 2.9375 0.25391 0.17578 0.51172 0.34766 0.76562 0.52734 1.582 1.1445 3.2422 2.1953 4.9609 3.1055 0.12891 0.070312 0.23047 0.13672 0.34766 0.19922 1.7969 0.93359 3.6836 1.7031 5.5938 2.3945 0.35937 0.12891 0.70312 0.25391 1.0703 0.375 1.8906 0.61719 3.8398 1.1133 5.8359 1.457 0.38672 0.0625 0.76562 0.10547 1.1523 0.16016 2.0352 0.30469 4.1133 0.49609 6.2461 0.51172 0.050781 0 0.11328 0.011719 0.16016 0.011719 0.31641 0 0.61719-0.042969 0.91016-0.050781 1.082-0.023438 2.1641-0.070313 3.2227-0.15625 0.57422-0.0625 1.1367-0.14844 1.6914-0.23047 0.79688-0.11328 1.5977-0.20703 2.375-0.36719 0.59766-0.11719 1.1836-0.25391 1.7852-0.39062 0.71094-0.16797 1.4375-0.34766 2.1641-0.55469 0.59766-0.17578 1.168-0.375 1.75-0.55859 0.69531-0.23047 1.3867-0.48438 2.0781-0.75391 0.55859-0.22266 1.1094-0.45312 1.6562-0.69141 0.69141-0.3125 1.3672-0.64844 2.0273-0.97656 0.51172-0.25391 1.0312-0.51562 1.5312-0.79688 0.69531-0.39062 1.3867-0.82031 2.0664-1.25 0.41797-0.27344 0.87891-0.52734 1.2891-0.81641 0.97656-0.66406 1.9492-1.3945 2.8672-2.1484 0.29297-0.23828 0.57422-0.49219 0.86328-0.73438 0.76562-0.66406 1.5312-1.3516 2.2578-2.0664 0.36719-0.35547 0.70312-0.74609 1.0586-1.125 0.54688-0.57812 1.0938-1.1562 1.6055-1.7539 0.375-0.42969 0.71484-0.89062 1.0703-1.332 0.44922-0.58984 0.91016-1.1758 1.3438-1.7852 0.32813-0.48047 0.64844-0.96875 0.96484-1.4609 0.39844-0.62891 0.78906-1.2383 1.1641-1.8867 0.29297-0.51172 0.58594-1.0273 0.85156-1.5508 0.35547-0.66016 0.66406-1.3438 0.98438-2.0352 0.24219-0.51562 0.48438-1.0391 0.70312-1.5742 0.30469-0.75781 0.58594-1.5352 0.85156-2.3164 0.14844-0.48438 0.35547-0.95703 0.49609-1.457 0.39062-1.2461 0.71484-2.5156 0.98437-3.8086 0.87891 0.60547 1.8359 1.0703 2.7383 1.6133 0.76562 0.44922 1.5039 0.94141 2.2969 1.3516 1.207 0.62109 2.4961 1.1094 3.7812 1.6172 0.78906 0.3125 1.543 0.67188 2.3633 0.94531 1.4258 0.46484 2.9414 0.77734 4.4492 1.1094 0.71094 0.14453 1.4141 0.39062 2.1406 0.49609 2.2578 0.36719 4.5664 0.57422 6.9375 0.57422 2.3477 0 4.6289-0.21875 6.8711-0.58594 0.19141-0.019531 0.38672-0.039062 0.56641-0.070312 2.1406-0.375 4.207-0.91406 6.2109-1.582 0.26562-0.09375 0.53516-0.14844 0.78906-0.25391 1.9492-0.67188 3.8086-1.5117 5.6172-2.4531 0.28125-0.14844 0.55859-0.29297 0.82812-0.4375 1.7734-0.96875 3.4727-2.0664 5.0781-3.2617 0.11328-0.085937 0.25391-0.14844 0.36719-0.24219v142.93l-0.003907 0.003906z"/>
 </g>
</svg>
