<?xml version="1.0" encoding="UTF-8"?>
<svg width="700pt" height="700pt" version="1.1" viewBox="0 0 700 700" xmlns="http://www.w3.org/2000/svg" xmlns:xlink="http://www.w3.org/1999/xlink">
 <defs>
  <symbol id="u" overflow="visible">
   <path d="m20.844-1.25c-1.0742 0.5625-2.1953 0.98438-3.3594 1.2656-1.168 0.28125-2.3828 0.42188-3.6406 0.42188-3.7812 0-6.7773-1.0508-8.9844-3.1562-2.2109-2.1133-3.3125-4.9766-3.3125-8.5938 0-3.625 1.1016-6.4922 3.3125-8.6094 2.207-2.1133 5.2031-3.1719 8.9844-3.1719 1.2578 0 2.4727 0.14844 3.6406 0.4375 1.1641 0.28125 2.2852 0.69922 3.3594 1.25v4.7031c-1.0859-0.73828-2.1523-1.2812-3.2031-1.625-1.0547-0.34375-2.1641-0.51562-3.3281-0.51562-2.0859 0-3.7266 0.66797-4.9219 2-1.1992 1.3359-1.7969 3.1797-1.7969 5.5312 0 2.3359 0.59766 4.1719 1.7969 5.5156 1.1953 1.3359 2.8359 2 4.9219 2 1.1641 0 2.2734-0.17188 3.3281-0.51562 1.0508-0.34375 2.1172-0.88281 3.2031-1.625z"/>
  </symbol>
  <symbol id="d" overflow="visible">
   <path d="m15.25-12.375c-0.48047-0.22656-0.95312-0.39453-1.4219-0.5-0.46875-0.10156-0.94531-0.15625-1.4219-0.15625-1.3984 0-2.4766 0.44922-3.2344 1.3438-0.75 0.89844-1.125 2.1797-1.125 3.8438v7.8438h-5.4375v-17.016h5.4375v2.7969c0.69531-1.1133 1.5-1.9258 2.4062-2.4375 0.90625-0.50781 1.9922-0.76562 3.2656-0.76562 0.17578 0 0.36719 0.011719 0.57812 0.03125 0.21875 0.011719 0.53125 0.042969 0.9375 0.09375z"/>
  </symbol>
  <symbol id="c" overflow="visible">
   <path d="m19.594-8.5469v1.5469h-12.719c0.13281 1.2734 0.59766 2.2305 1.3906 2.875 0.78906 0.63672 1.8945 0.95312 3.3125 0.95312 1.1445 0 2.3164-0.16406 3.5156-0.5 1.1953-0.34375 2.4297-0.85938 3.7031-1.5469v4.1875c-1.293 0.49219-2.5859 0.85547-3.875 1.0938-1.2812 0.25-2.5625 0.375-3.8438 0.375-3.0859 0-5.4805-0.78125-7.1875-2.3438-1.6992-1.5625-2.5469-3.7539-2.5469-6.5781 0-2.7812 0.83203-4.9609 2.5-6.5469 1.6758-1.5938 3.9844-2.3906 6.9219-2.3906 2.6758 0 4.8164 0.80859 6.4219 2.4219 1.6016 1.6055 2.4062 3.7578 2.4062 6.4531zm-5.5938-1.8125c0-1.0312-0.30469-1.8633-0.90625-2.5-0.59375-0.63281-1.3828-0.95312-2.3594-0.95312-1.0547 0-1.9062 0.29688-2.5625 0.89062s-1.0703 1.4492-1.2344 2.5625z"/>
  </symbol>
  <symbol id="i" overflow="visible">
   <path d="m10.234-7.6562c-1.1367 0-1.9922 0.19531-2.5625 0.57812-0.5625 0.38672-0.84375 0.95312-0.84375 1.7031 0 0.6875 0.22656 1.2305 0.6875 1.625 0.45703 0.38672 1.0977 0.57812 1.9219 0.57812 1.0195 0 1.8789-0.36328 2.5781-1.0938 0.69531-0.73828 1.0469-1.6602 1.0469-2.7656v-0.625zm8.3125-2.0469v9.7031h-5.4844v-2.5156c-0.73047 1.0312-1.5547 1.7812-2.4688 2.25-0.90625 0.46875-2.0117 0.70312-3.3125 0.70312-1.7617 0-3.1953-0.50781-4.2969-1.5312-1.0938-1.0312-1.6406-2.3672-1.6406-4.0156 0-1.9883 0.67969-3.4453 2.0469-4.375 1.375-0.9375 3.5312-1.4062 6.4688-1.4062h3.2031v-0.42188c0-0.86328-0.33984-1.4922-1.0156-1.8906-0.67969-0.40625-1.7344-0.60938-3.1719-0.60938-1.168 0-2.2578 0.12109-3.2656 0.35938-1 0.23047-1.9297 0.57812-2.7812 1.0469v-4.1562c1.1641-0.28125 2.332-0.49219 3.5-0.64062 1.1758-0.14453 2.3516-0.21875 3.5312-0.21875 3.0703 0 5.2852 0.60547 6.6406 1.8125 1.3633 1.2109 2.0469 3.1797 2.0469 5.9062z"/>
  </symbol>
  <symbol id="b" overflow="visible">
   <path d="m8.5469-21.844v4.8281h5.6094v3.8906h-5.6094v7.2188c0 0.79297 0.15625 1.3281 0.46875 1.6094 0.32031 0.27344 0.94531 0.40625 1.875 0.40625h2.7969v3.8906h-4.6719c-2.1484 0-3.668-0.44531-4.5625-1.3438-0.89844-0.89453-1.3438-2.4141-1.3438-4.5625v-7.2188h-2.7031v-3.8906h2.7031v-4.8281z"/>
  </symbol>
  <symbol id="h" overflow="visible">
   <path d="m14.188-14.516v-9.125h5.4688v23.641h-5.4688v-2.4531c-0.75 1-1.5781 1.7344-2.4844 2.2031-0.89844 0.45703-1.9375 0.6875-3.125 0.6875-2.0938 0-3.8203-0.83203-5.1719-2.5-1.3438-1.6641-2.0156-3.8047-2.0156-6.4219 0-2.625 0.67188-4.7695 2.0156-6.4375 1.3516-1.6641 3.0781-2.5 5.1719-2.5 1.1758 0 2.2188 0.23438 3.125 0.70312s1.7344 1.2031 2.4844 2.2031zm-3.5781 11c1.1562 0 2.0391-0.42188 2.6562-1.2656 0.61328-0.85156 0.92188-2.0859 0.92188-3.7031 0-1.625-0.30859-2.8594-0.92188-3.7031-0.61719-0.85156-1.5-1.2812-2.6562-1.2812s-2.043 0.42969-2.6562 1.2812c-0.61719 0.84375-0.92188 2.0781-0.92188 3.7031 0 1.6172 0.30469 2.8516 0.92188 3.7031 0.61328 0.84375 1.5 1.2656 2.6562 1.2656z"/>
  </symbol>
  <symbol id="g" overflow="visible">
   <path d="m11.672-3.5156c1.1562 0 2.0391-0.42188 2.6562-1.2656 0.61328-0.85156 0.92188-2.0859 0.92188-3.7031 0-1.625-0.30859-2.8594-0.92188-3.7031-0.61719-0.85156-1.5-1.2812-2.6562-1.2812-1.168 0-2.0625 0.42969-2.6875 1.2812-0.625 0.85547-0.9375 2.0898-0.9375 3.7031 0 1.6055 0.3125 2.8359 0.9375 3.6875 0.625 0.85547 1.5195 1.2812 2.6875 1.2812zm-3.625-11c0.75-1 1.5781-1.7344 2.4844-2.2031 0.91406-0.46875 1.9688-0.70312 3.1562-0.70312 2.0938 0 3.8125 0.83594 5.1562 2.5 1.3516 1.668 2.0312 3.8125 2.0312 6.4375 0 2.6172-0.67969 4.7578-2.0312 6.4219-1.3438 1.668-3.0625 2.5-5.1562 2.5-1.1875 0-2.2422-0.23438-3.1562-0.70312-0.90625-0.46875-1.7344-1.1953-2.4844-2.1875v2.4531h-5.4375v-23.641h5.4375z"/>
  </symbol>
  <symbol id="m" overflow="visible">
   <path d="m0.375-17.016h5.4375l4.5781 11.547 3.8906-11.547h5.4375l-7.1562 18.625c-0.71875 1.8945-1.5586 3.2188-2.5156 3.9688-0.96094 0.75781-2.2188 1.1406-3.7812 1.1406h-3.1562v-3.5781h1.7031c0.92578 0 1.5977-0.14844 2.0156-0.4375 0.41406-0.29297 0.74219-0.82031 0.98438-1.5781l0.14062-0.46875z"/>
  </symbol>
  <symbol id="l" overflow="visible">
   <path d="m18.641-21.969v4.7969c-1.25-0.55078-2.4688-0.96875-3.6562-1.25-1.1797-0.28125-2.293-0.42188-3.3438-0.42188-1.3984 0-2.4336 0.19531-3.1094 0.57812-0.66797 0.375-1 0.96875-1 1.7812 0 0.61719 0.22266 1.0938 0.67188 1.4375 0.45703 0.33594 1.2734 0.62109 2.4531 0.85938l2.5 0.5c2.5195 0.51172 4.3125 1.2812 5.375 2.3125s1.5938 2.5 1.5938 4.4062c0 2.5-0.74609 4.3594-2.2344 5.5781-1.4805 1.2188-3.7422 1.8281-6.7812 1.8281-1.4375 0-2.8828-0.13672-4.3281-0.40625-1.4492-0.26953-2.8984-0.67578-4.3438-1.2188v-4.9375c1.4453 0.77344 2.8438 1.3555 4.1875 1.75 1.3516 0.38672 2.6602 0.57812 3.9219 0.57812 1.2695 0 2.2422-0.21094 2.9219-0.64062 0.67578-0.42578 1.0156-1.0352 1.0156-1.8281 0-0.70703-0.23047-1.25-0.6875-1.625-0.46094-0.38281-1.375-0.73438-2.75-1.0469l-2.2656-0.5c-2.2734-0.47656-3.9336-1.25-4.9844-2.3125-1.043-1.0703-1.5625-2.5078-1.5625-4.3125 0-2.25 0.72656-3.9844 2.1875-5.2031 1.457-1.2188 3.5508-1.8281 6.2812-1.8281 1.25 0 2.5312 0.09375 3.8438 0.28125 1.3203 0.1875 2.6875 0.46875 4.0938 0.84375z"/>
  </symbol>
  <symbol id="k" overflow="visible">
   <path d="m2.4375-6.625v-10.391h5.4688v1.7031c0 0.92969-0.007812 2.0898-0.015625 3.4844-0.011719 1.3867-0.015625 2.3125-0.015625 2.7812 0 1.3672 0.03125 2.3516 0.09375 2.9531 0.070312 0.60547 0.19531 1.043 0.375 1.3125 0.21875 0.35547 0.50391 0.63281 0.85938 0.82812 0.36328 0.1875 0.78125 0.28125 1.25 0.28125 1.1328 0 2.0234-0.42969 2.6719-1.2969 0.64453-0.875 0.96875-2.0859 0.96875-3.6406v-8.4062h5.4375v17.016h-5.4375v-2.4531c-0.82422 0.99219-1.6953 1.7188-2.6094 2.1875-0.91797 0.46875-1.9297 0.70312-3.0312 0.70312-1.9609 0-3.4531-0.59766-4.4844-1.7969-1.0234-1.207-1.5312-2.9609-1.5312-5.2656z"/>
  </symbol>
  <symbol id="f" overflow="visible">
   <path d="m2.6094-17.016h5.4375v17.016h-5.4375zm0-6.625h5.4375v4.4375h-5.4375z"/>
  </symbol>
  <symbol id="a" overflow="visible">
   <path d="m10.703-13.531c-1.1992 0-2.1172 0.43359-2.75 1.2969-0.63672 0.86719-0.95312 2.1172-0.95312 3.75 0 1.625 0.31641 2.8711 0.95312 3.7344 0.63281 0.86719 1.5508 1.2969 2.75 1.2969 1.1875 0 2.0938-0.42969 2.7188-1.2969 0.63281-0.86328 0.95312-2.1094 0.95312-3.7344 0-1.6328-0.32031-2.8828-0.95312-3.75-0.625-0.86328-1.5312-1.2969-2.7188-1.2969zm0-3.8906c2.9258 0 5.2109 0.79297 6.8594 2.375 1.6445 1.5742 2.4688 3.7617 2.4688 6.5625 0 2.793-0.82422 4.9805-2.4688 6.5625-1.6484 1.5742-3.9336 2.3594-6.8594 2.3594-2.9375 0-5.2344-0.78516-6.8906-2.3594-1.6484-1.582-2.4688-3.7695-2.4688-6.5625 0-2.8008 0.82031-4.9883 2.4688-6.5625 1.6562-1.582 3.9531-2.375 6.8906-2.375z"/>
  </symbol>
  <symbol id="t" overflow="visible">
   <path d="m2.8594-22.672h15.781v4.4062h-9.9375v4.2344h9.3438v4.4219h-9.3438v9.6094h-5.8438z"/>
  </symbol>
  <symbol id="j" overflow="visible">
   <path d="m19.719-10.359v10.359h-5.4688v-7.9219c0-1.4688-0.039062-2.4766-0.10938-3.0312-0.0625-0.5625-0.17188-0.97656-0.32812-1.25-0.21875-0.35156-0.51172-0.62891-0.875-0.82812-0.36719-0.19531-0.77734-0.29688-1.2344-0.29688-1.1367 0-2.0312 0.44531-2.6875 1.3281-0.64844 0.875-0.96875 2.0859-0.96875 3.625v8.375h-5.4375v-17.016h5.4375v2.5c0.82031-1 1.6914-1.7344 2.6094-2.2031 0.92578-0.46875 1.9453-0.70312 3.0625-0.70312 1.957 0 3.4453 0.60547 4.4688 1.8125 1.0195 1.1992 1.5312 2.9492 1.5312 5.25z"/>
  </symbol>
  <symbol id="e" overflow="visible">
   <path d="m16.359-16.484v4.4375c-0.74219-0.50781-1.4844-0.88281-2.2344-1.125-0.74219-0.23828-1.5117-0.35938-2.3125-0.35938-1.5117 0-2.6953 0.44531-3.5469 1.3281-0.84375 0.88672-1.2656 2.125-1.2656 3.7188 0 1.5859 0.42188 2.8203 1.2656 3.7031 0.85156 0.88672 2.0352 1.3281 3.5469 1.3281 0.85156 0 1.6602-0.125 2.4219-0.375 0.76953-0.25 1.4766-0.625 2.125-1.125v4.4531c-0.85547 0.3125-1.7188 0.54688-2.5938 0.70312s-1.75 0.23438-2.625 0.23438c-3.0742 0-5.4766-0.78516-7.2031-2.3594-1.7305-1.5703-2.5938-3.7578-2.5938-6.5625 0-2.8125 0.86328-5.0039 2.5938-6.5781 1.7266-1.5703 4.1289-2.3594 7.2031-2.3594 0.88281 0 1.7578 0.078125 2.625 0.23438 0.86328 0.15625 1.7266 0.39062 2.5938 0.70312z"/>
  </symbol>
  <symbol id="s" overflow="visible">
   <path d="m13.812-23.641v3.5781h-3.0156c-0.77344 0-1.3086 0.14062-1.6094 0.42188-0.30469 0.27344-0.45312 0.75-0.45312 1.4375v1.1875h4.6406v3.8906h-4.6406v13.125h-5.4375v-13.125h-2.7031v-3.8906h2.7031v-1.1875c0-1.8516 0.51562-3.2227 1.5469-4.1094 1.0312-0.88281 2.6289-1.3281 4.7969-1.3281z"/>
  </symbol>
  <symbol id="r" overflow="visible">
   <path d="m18.375-14.188c0.6875-1.0508 1.5039-1.8516 2.4531-2.4062 0.94531-0.55078 1.9883-0.82812 3.125-0.82812 1.957 0 3.4453 0.60547 4.4688 1.8125 1.0195 1.1992 1.5312 2.9492 1.5312 5.25v10.359h-5.4688v-8.875c0.007813-0.125 0.015625-0.25781 0.015625-0.40625 0.007812-0.14453 0.015625-0.34766 0.015625-0.60938 0-1.207-0.17969-2.082-0.53125-2.625-0.35547-0.53906-0.92969-0.8125-1.7188-0.8125-1.0312 0-1.8281 0.42969-2.3906 1.2812-0.5625 0.85547-0.85547 2.0859-0.875 3.6875v8.3594h-5.4688v-8.875c0-1.8828-0.16406-3.0977-0.48438-3.6406-0.32422-0.53906-0.90234-0.8125-1.7344-0.8125-1.043 0-1.8516 0.43359-2.4219 1.2969-0.5625 0.85547-0.84375 2.0742-0.84375 3.6562v8.375h-5.4688v-17.016h5.4688v2.5c0.66406-0.96875 1.4297-1.6914 2.2969-2.1719 0.875-0.48828 1.832-0.73438 2.875-0.73438 1.1758 0 2.2109 0.28906 3.1094 0.85938 0.90625 0.5625 1.5859 1.3555 2.0469 2.375z"/>
  </symbol>
  <symbol id="q" overflow="visible">
   <path d="m19.719-10.359v10.359h-5.4688v-7.9062c0-1.4766-0.039062-2.4922-0.10938-3.0469-0.0625-0.5625-0.17188-0.97656-0.32812-1.25-0.21875-0.35156-0.51172-0.62891-0.875-0.82812-0.36719-0.19531-0.77734-0.29688-1.2344-0.29688-1.1367 0-2.0312 0.44531-2.6875 1.3281-0.64844 0.875-0.96875 2.0859-0.96875 3.625v8.375h-5.4375v-23.641h5.4375v9.125c0.82031-1 1.6914-1.7344 2.6094-2.2031 0.92578-0.46875 1.9453-0.70312 3.0625-0.70312 1.957 0 3.4453 0.60547 4.4688 1.8125 1.0195 1.1992 1.5312 2.9492 1.5312 5.25z"/>
  </symbol>
  <symbol id="p" overflow="visible">
   <path d="m2.8594-22.672h6.5312l8.25 15.547v-15.547h5.5469v22.672h-6.5469l-8.2344-15.562v15.562h-5.5469z"/>
  </symbol>
  <symbol id="o" overflow="visible">
   <path d="m2.8594-22.672h9.7031c2.8828 0 5.0977 0.64062 6.6406 1.9219 1.5508 1.2812 2.3281 3.1055 2.3281 5.4688 0 2.375-0.77734 4.2031-2.3281 5.4844-1.543 1.2812-3.7578 1.9219-6.6406 1.9219h-3.8594v7.875h-5.8438zm5.8438 4.2344v6.3281h3.2344c1.1328 0 2.0078-0.27344 2.625-0.82812 0.625-0.55078 0.9375-1.332 0.9375-2.3438 0-1.0078-0.3125-1.7852-0.9375-2.3281-0.61719-0.55078-1.4922-0.82812-2.625-0.82812z"/>
  </symbol>
  <symbol id="n" overflow="visible">
   <path d="m2.6094-17.016h5.4375v16.719c0 2.2695-0.54688 4.0039-1.6406 5.2031-1.0938 1.207-2.6797 1.8125-4.75 1.8125h-2.6875v-3.5781h0.9375c1.0312 0 1.7383-0.23438 2.125-0.70312 0.38281-0.46094 0.57812-1.3711 0.57812-2.7344zm0-6.625h5.4375v4.4375h-5.4375z"/>
  </symbol>
 </defs>
 <g>
  <path d="m497.54 226.97c-2.0547-0.28516-4.0898-0.44141-6.1172-0.44141-6.7188 0.007812-13.148 1.6133-18.922 4.4258 0-0.10547 0.023438-0.21875 0.023438-0.32422 0-21.387-15.723-39.977-37.465-43.051-2.0273-0.28125-4.0508-0.42188-6.0898-0.42188-6.9492 0.007813-13.551 1.7344-19.469 4.7148l18.555-142.38c0.28125-1.9727 0.40625-4.0195 0.40625-6.0156 0-21.391-15.723-39.973-37.465-43.051-2.0234-0.28516-4.0508-0.43359-6.082-0.43359-21.391 0-40.016 15.703-43.059 37.508l-31.109 206.88-54.152-198.41c-5.207-19.426-22.781-32.258-42.031-32.258-3.7227 0-7.5156 0.48047-11.293 1.4922-19.414 5.2383-32.242 22.785-32.23 42.023 0 3.7266 0.48438 7.5234 1.5 11.301l36.375 150.84c-3.6953 0.64844-7.5547 1.7188-11.609 3.2734-1.6055 0.60937-3.2031 1.2188-4.8672 1.9805-2.9805 1.3672-4.9844 4.2109-5.2461 7.4844 0 0-0.023437 0.32422-0.17578 1.4141-1.0586 7.543-7.7031 43.996-43.398 89.699v0.011719c-0.66016 0.84766-1.1367 1.8125-1.457 2.8125-0.019531 0.074219-0.0625 0.13672-0.09375 0.21875-0.28125 0.97656-0.37891 1.9961-0.31641 3.043 0 0.082031-0.03125 0.13672-0.023438 0.21094 0.050782 0.39062 4.6367 56.379 23.152 113.14 9.2969 28.406 22.008 57.07 40.051 79.285 17.879 22.113 42.059 38.047 72.359 38.047h0.13672c0.49609-0.011719 0.85938-0.011719 1.1094-0.011719l154.97 0.011719c55.184-0.011719 99.918-44.758 99.918-99.934l1.1562-183.96c0.28125-2.0664 0.42188-4.1016 0.41016-6.0977-0.011719-21.375-15.734-39.945-37.449-43.031zm-68.605-21.777h0.039062c1.168 0 2.3711 0.082032 3.5859 0.26172 12.723 1.7617 21.934 12.723 21.934 25.188 0 1.2148-0.09375 2.4062-0.24219 3.6016l-2.5898 18.418-10.234 72.758-1.2383 8.8789-2.1016 14.945c-0.023438 0.1875-0.097657 0.35547-0.125 0.52734-2.0156 12.434-12.805 21.41-25.07 21.391-1.1992 0-2.4062-0.0625-3.5859-0.22266-11.156-1.5625-19.574-10.156-21.512-20.652-0.011719-0.082031-0.039063-0.15625-0.0625-0.24219-0.25391-1.4453-0.37891-2.8945-0.37891-4.3945 0-1.1367 0.074219-2.2891 0.24219-3.4922l5.5547-39.504 7.0117-49.91 3.6094-25.617c0.34375-2.4453 1.0703-4.7305 2.0273-6.8711 0.097656-0.23828 0.16016-0.49219 0.28125-0.71484 4.1758-8.6016 13.086-14.348 22.855-14.348zm-191.81 157.42c-0.09375-0.097656-0.21094-0.21875-0.33594-0.37891-0.32812-0.42188-0.75391-1.1211-1.168-2.1602-0.070313-0.1875-0.13672-0.34766-0.21875-0.55469-0.007813-0.011719-0.011719-0.050781-0.019532-0.0625-0.62109-1.8594-1.1641-4.6797-1.2266-9.0039 0-0.50391 0.039062-1.0938 0.050781-1.6289 0.019531-0.65234 0.03125-1.3008 0.082031-2.0117 0.039063-0.58984 0.125-1.2383 0.17969-1.8672 0.082031-0.83984 0.16797-1.6719 0.28516-2.5625 0.09375-0.67187 0.21875-1.4258 0.33594-2.1406 0.15625-0.95313 0.32812-1.9336 0.52734-2.9688 0.15625-0.78906 0.32812-1.5977 0.51172-2.4336 0.097656-0.42188 0.21875-0.90234 0.31641-1.3359l5.4766 30.5zm278.25 97.453c-0.0625 45.215-36.668 81.809-81.875 81.902h-154.84c-0.46094 0-0.91016 0.011719-1.2305 0.011719-23.805-0.082031-42.496-11.898-58.508-31.402-23.867-29.168-39.156-75.098-47.879-113.49-4.3984-19.215-7.2422-36.531-8.9727-49.039-1.0469-7.5117-1.6797-13.211-2.0273-16.562 0.57812-0.76562 1.0938-1.5 1.668-2.2578 1.1836-1.5742 2.3516-3.1602 3.4727-4.7148 0.78906-1.1094 1.543-2.1836 2.3008-3.2656 1.082-1.5625 2.1719-3.1094 3.1992-4.6484 0.69141-1.0469 1.3555-2.0781 2.0273-3.1094 1-1.5352 2.0039-3.0742 2.9414-4.5859 0.60938-0.98438 1.1836-1.9492 1.7656-2.9297 0.91406-1.5234 1.8398-3.0352 2.6992-4.5352 0.52734-0.91406 1.0273-1.8125 1.5312-2.7188 0.84766-1.5195 1.6875-3.0195 2.4688-4.4844 0.44922-0.85938 0.86328-1.6602 1.293-2.4883 0.77344-1.4766 1.543-2.9727 2.2539-4.4102 0.39063-0.76563 0.72656-1.5117 1.0938-2.2656 0.69531-1.457 1.3984-2.918 2.0391-4.3164 0.3125-0.68359 0.58984-1.3516 0.90234-2.0273 0.62891-1.4297 1.2617-2.8555 1.8359-4.2305 0.25391-0.60938 0.48047-1.1836 0.72266-1.7812 0.56641-1.3984 1.1367-2.7891 1.6484-4.1172 0.19922-0.51562 0.375-1.0156 0.55859-1.5234 0.51172-1.3555 1.0156-2.7109 1.4609-4 0.14453-0.42188 0.27344-0.81641 0.42188-1.2305 0.44922-1.3203 0.89453-2.625 1.2891-3.8711 0.11719-0.35938 0.20703-0.68359 0.31641-1.0391 0.39062-1.25 0.77344-2.4883 1.1094-3.6523 0.082031-0.27344 0.13672-0.51562 0.21875-0.78516 0.33594-1.1836 0.65234-2.3516 0.93359-3.4414 0.070312-0.27344 0.12891-0.51172 0.1875-0.77734 0.26172-1.0312 0.51562-2.0547 0.72656-2.9883 0.097656-0.41797 0.16797-0.77344 0.25391-1.1641 0.15625-0.71484 0.32422-1.4492 0.45313-2.0898 0.20703-1.0195 0.37891-1.9531 0.53516-2.793 3.2617-1.2148 6.0859-1.8984 8.5508-2.2578 0.070313-0.007813 0.14453-0.011719 0.21094-0.023437 1.293-0.17969 2.5273-0.29688 3.6016-0.29688 2.1094 0 3.8281 0.29688 5.3125 0.77344 2.3164 0.76562 4.1758 1.9727 5.8633 3.6953 0.71094 0.72266 1.3945 1.5117 2.0586 2.4336 1.8164 2.4219 3.2109 5.625 4.3242 9.0898 2.75 8.5977 3.5898 19.008 3.4609 24.504 0 0.92188-0.011718 1.6875-0.023437 2.2891v0.023437c-0.48047 0.98828-0.87891 1.8906-1.332 2.8516-0.96875 2.0586-1.9492 4.1328-2.8516 6.0898-1.8672 4.1328-3.5039 8-5.0352 11.754-9.1914 22.625-12.371 38.598-12.402 50.352-0.042969 2.0898 0.10547 3.9805 0.29297 5.8164 1.3828 13.602 8.4922 20.395 12.027 22.367 0.57812 0.31641 1.0508 0.49609 1.3984 0.58594l0.29297 0.097657 0.51562 0.1875 17.199 5.082 2.9922 0.89062c0.80078 0.25 1.625 0.35547 2.4453 0.36719 0.042968 0 0.09375 0.011719 0.12891 0.011719 0.16016 0 0.3125-0.0625 0.47266-0.074219 0.31641-0.019531 0.63281-0.042968 0.94141-0.09375 2.7617 0.0625 15.723 0.62109 30.066 5.0977 16.297 5.0977 33.512 14.801 41.961 33.203 1.5195 3.3086 4.7852 5.2656 8.1992 5.2656 1.2578 0 2.5312-0.26562 3.7578-0.83984 4.5352-2.0898 6.4961-7.4375 4.4102-11.961-11.562-24.965-34.184-37.039-52.969-42.879-11.945-3.707-22.688-5.0781-29.281-5.6016l-5.5-30.652-2.3945-13.352-5.6016-22.418c0.81641-1.9023 1.582-3.7461 2.5-5.7695 1.4258-3.125 2.9297-6.3594 4.5742-9.7266l0.019532-0.050781c0.070312-0.12891 0.13672-0.27344 0.20703-0.41797 0.52344-1.0898 0.80859-2.1719 0.89453-3.3672 0.007813-0.12891 0.074219-1.2188 0.10547-3.0625 0.011719-0.60937 0.019531-1.3086 0.019531-2.0703-0.03125-1.7422-0.097656-3.9336-0.21875-6.3047-0.054687-1.082-0.125-2.1602-0.21094-3.3398-0.097657-1.25-0.21094-2.5508-0.36719-3.8945-1.0508-9.4141-3.6445-20.801-10.297-30.484-1.1992-1.7031-2.6367-3.3164-4.1875-4.8516-3.4531-3.4336-7.7109-6.3203-12.844-7.9766l-37.656-156.21c-0.64844-2.457-0.94141-4.6523-0.94141-6.8438 0.011719-11.238 7.5234-21.578 18.91-24.609 2.2031-0.60938 4.4062-0.87891 6.5898-0.87891 11.25 0 21.59 7.5117 24.629 18.914l59.191 216.89 4.0508 14.852c0.25391 0.93359 0.67969 1.7617 1.1836 2.5312 1.9531 2.9805 5.5312 4.5859 9.1641 3.9141 0.12891 0.023438 0.25 0.082031 0.37891 0.10547 4.9297 0.72656 9.5156-2.6641 10.262-7.5781l0.80078-5.3633 3.1719-21.125 32.289-214.82c1.7734-12.836 12.742-22.047 25.227-22.047 1.168 0 2.3594 0.085938 3.5703 0.25 12.738 1.7852 21.941 12.738 21.941 25.207-0.011719 1.207-0.085937 2.4141-0.25391 3.5977l-40.434 292.55c-0.28125 2.0039-0.41797 4.0273-0.40625 6.0234-0.011719 2.5156 0.20703 5.0352 0.63281 7.4805 3.1094 18.137 17.641 32.953 36.828 35.66 2.0469 0.28125 4.1016 0.41797 6.0898 0.41797 18.449 0 34.781-11.742 40.906-28.91 6.2852 5.8125 14.281 9.8867 23.395 11.176 1.9727 0.29687 3.9375 0.41797 5.8359 0.41797h0.26562c12.562 0 24.035-5.5078 32.07-14.375v102.53zm1.3242-186.46-1.5195 10.801-0.86328 6.1523-4.2188 29.98-1.6055 11.426c-0.20703 1.582-0.59766 3.125-1.125 4.6797-3.4766 10.219-13.246 17.273-24.066 17.246-1.2148 0-2.4141-0.070313-3.5977-0.24219-10.828-1.5117-19.027-9.6758-21.254-19.738-0.0625-0.29297-0.16797-0.55859-0.21875-0.84766-0.023437-0.097656-0.0625-0.17578-0.074219-0.26562-0.28125-1.4922-0.39062-2.9805-0.39062-4.4727 0-1.1133 0.074219-2.2539 0.24219-3.4609l5.2656-37.395 2.9492-20.98c0.21875-1.6172 0.62109-3.2422 1.168-4.7773 0.31641-0.94531 0.71484-1.8711 1.1562-2.7891 0.17969-0.35938 0.39844-0.67188 0.60547-1.0156 4.3633-8.0508 12.836-13.352 22.195-13.352h0.082032c1.168 0 2.3711 0.074218 3.5859 0.25h0.011719c12.711 1.7812 21.926 12.73 21.926 25.188-0.011719 1.2148-0.097656 2.418-0.25391 3.6133z"/>
 </g>
</svg>
